<svg xmlns="http://www.w3.org/2000/svg" style="display: none;">
    <symbol id="burger-menu" viewBox="0 0 488 488">
        <path d="M64.192,108.444h359.617c29.943,0,54.223-24.278,54.223-54.222C478.031,24.278,453.754,0,423.809,0H64.192 C34.248,0,9.969,24.278,9.969,54.222C9.969,84.166,34.248,108.444,64.192,108.444z"/>
        <path d="M423.809,189.778H64.192c-29.944,0-54.223,24.278-54.223,54.222c0,29.943,24.278,54.223,54.223,54.223h359.617 c29.945,0,54.223-24.279,54.223-54.223C478.031,214.056,453.754,189.778,423.809,189.778z"/>
        <path d="M423.809,379.557H64.192c-29.944,0-54.223,24.277-54.223,54.222C9.969,463.722,34.248,488,64.192,488h359.617 c29.945,0,54.223-24.278,54.223-54.222C478.031,403.834,453.754,379.557,423.809,379.557z"/>
    </symbol>

    <symbol id="close-menu">
      <path d="M443.6,48.7L439.3,44.4c-5.9-5.9-15.4-5.9-21.2,0L244,218.3L70,44.4c-5.9-5.9-15.4-5.9-21.2,0L44.4,48.7c-5.9,5.9-5.9,15.4,0,21.2L222.8,244L44.4,418.1c-5.9,5.9-5.9,15.4,0,21.2l4.3,4.3c5.9,5.9,15.4,5.9,21.2,0L244,269.7l174,173.9c5.9,5.9,15.4,5.9,21.2,0l4.3-4.3c5.9-5.9,5.9-15.4,0-21.2L265.2,244L443.6,69.9C449.5,64.1,449.5,54.6,443.6,48.7z"/>
    </symbol>
</svg>
